<?xml version="1.0" encoding="utf-8"?>
<!-- Generator: Adobe Illustrator 23.0.2, SVG Export Plug-In . SVG Version: 6.00 Build 0)  -->
<svg version="1.1" xmlns="http://www.w3.org/2000/svg" xmlns:xlink="http://www.w3.org/1999/xlink" x="0px" y="0px"
	 viewBox="0 0 1920 1080" style="enable-background:new 0 0 1920 1080;" xml:space="preserve">
<style type="text/css">
	.st0{fill:#16AA17;}
	.st1{fill:#0A900A;}
	.st2{fill:#259A23;}
	.st3{fill:#00A500;}
	.st4{fill:#2AAD29;}
	.st5{fill:#08A207;}
	.st6{fill:#2BAD2A;}
</style>
<g id="bush_1">
	<path class="st0" d="M1732.27,7.86c2.23-2.43,4.46-4.86,6.68-7.29c0.09,2.35,0.18,4.7,0.28,7.05
		C1736.91,7.7,1734.59,7.78,1732.27,7.86z"/>
</g>
<g id="bush_2">
</g>
<g id="bush_3">
	<g>
		<path class="st1" d="M93.96,860.1c-59.64-11.97-85.8-42-83.26-95.57c2.27-47.82,32.99-78.91,86.33-83.53
			c14.77-1.28,23.97-6.21,34.06-16.01c10.38-10.08,25.22-25.02,36.13-23.52c57.23,7.89,100.73-25.73,149.91-42.76
			c52.39-18.14,93.48,34.56,134.96,33.92c51.99-0.8,95.83-9.68,128.31,39.53c7.77,11.77,17.86,5.99,27.9,5.78
			c58.22-1.24,100,35.52,101.71,88.72c1.7,52.82-37.4,90.55-96.42,93.04c0-2.55-0.02-5.09-0.04-7.64
			c1.76-32.37-20.13-53.64-45.23-56.53c-52.47-6.05-95.3-33.83-142.63-51.11c-53.52-89.64-186.78-80.55-229.39,2.55
			c-7.17,13.99-16.44,21.82-33.55,25.03C117.54,780.51,95.23,811.08,93.96,860.1z"/>
		<path class="st2" d="M93.96,860.1c1.27-49.02,23.58-79.59,68.8-88.08c17.1-3.21,26.38-11.05,33.55-25.03
			c42.61-83.1,175.87-92.19,229.39-2.55c-39.3-3.77-73.6,5.04-96.2,40.35c-9.54,14.91-16.93,8.83-28.39,1.71
			c-62.27-38.63-121.02-7.98-126.43,65.09l0.09,0.74c-20.84,2.65-43.34-8.02-62.53,7.8C106.14,860.13,100.05,860.12,93.96,860.1z"/>
		<path class="st3" d="M613.55,852.07c0.02,2.55,0.04,5.09,0.04,7.64c-146.3,0-292.6,0.01-438.9,0.01
			c-0.01-2.46,0.01-4.92,0.06-7.38c0,0-0.09-0.74-0.09-0.74C320.96,851.76,467.26,851.92,613.55,852.07z"/>
		<path class="st1" d="M174.75,852.34c-0.05,2.46-0.07,4.92-0.06,7.38c-20.82,0.14-41.64,0.28-62.47,0.42
			C131.42,844.32,153.92,854.99,174.75,852.34z"/>
		<path class="st0" d="M335.9,350.32c0-2.84-0.13-5.68-0.37-8.51c3.1-0.13,6.2-0.26,9.3-0.4c0.02,3.11,0.04,6.22,0.05,9.34
			C341.9,350.6,338.9,350.46,335.9,350.32z"/>
		<path class="st4" d="M613.55,852.07c-146.29-0.15-292.59-0.31-438.88-0.47c5.4-73.08,64.16-103.73,126.43-65.1
			c11.46,7.11,18.85,13.2,28.39-1.71c22.6-35.32,56.9-44.12,96.2-40.35c47.34,17.28,90.16,45.06,142.63,51.11
			C593.42,798.44,615.31,819.7,613.55,852.07z"/>
	</g>
	<g>
		<path class="st1" d="M956.29,676.71c-36.96,0.37-73.92,0.86-110.88,1.07c-16.78,0.1-29.39-7.57-35.5-23.19
			c-5.94-15.18-4.13-30.17,8.17-41.83c6.45-6.11,9.62-12.66,11.83-21.23c10.48-40.73,50.46-63.24,89.95-49.56
			c12.46,4.32,23.84-0.44,33.76,0.77c29.98,3.64,55.81-16.21,80.75-14.41c29.57,2.13,52.84-28.28,82.08-10.31
			c38.01-28.74,73.19-26.39,108.51,6.4c4.69,4.36,26.61,7.49,28.3-15.54c1.85-25.19,19.49-38.97,43.29-41.97
			c23.98-3.02,43.8,7.28,52.35,30.33c4.72,12.72,9.85,14.57,21.68,12.11c23.36-4.85,43.47,2.71,58.49,20.97
			c14.18,17.24,30.12,14.38,45.73,4.76c15.71-9.68,31.07-13.14,47.22-3.39c7.5,4.53,13.79,2.99,21.4,1.35
			c43.13-9.28,80.43,12.83,89.43,55.49c4.65,22.04,25.24,21.58,37.67,31.84c12.73,10.51,23.82,18.65,19.58,36.29
			c-4.35,18.12-18.91,21.26-34.76,21.13c-12.58-0.1-25.16-0.69-37.73-1.06c0.01-1.51,0.02-3.03,0.03-4.55
			c4.18-0.06,8.37-0.07,12.55-0.17c25.29-0.57,26.74-3.05,14.92-25.49c-15.28-29-50.75-41.76-83.08-29.9
			c-14.89-0.57-31.21-4.69-44.23-2.45c-23.7,4.07-28.61-8.67-37.71-24.15c-12.79-21.74-32.6-32.67-59.46-34.99
			c-29.1-2.52-47.81,15.63-70.4,26.55c-32.69-16.7-59.89-14.84-84.49,9.47c-7.82,7.73-13.98,6.18-21.83,5.64c-5-0.07-10-0.14-15-0.2
			c-2.18-32.37-14.69-50.75-37.6-55.25c-28-5.5-47.91,4-61.15,31.97c-4.62,9.77-8.03,10.97-18.37,9.05
			c-24.48-4.55-45.74,2.29-63.66,21.36c-11.37,12.1-26.73,14.86-42.29,5.28c-15.74-9.69-31.95-14.2-49.72-4.95
			c-7.03,3.66-14.57,2.66-22.17,1.13c-36.12-7.31-72.35,12.37-85.31,45.24c-5.99,15.2-2.86,22.06,14.37,21.82
			c31.1-0.43,62.21-0.04,93.31,0.01C956.3,673.67,956.29,675.19,956.29,676.71z"/>
		<path class="st5" d="M956.29,676.71c0.01-1.52,0.01-3.04,0.02-4.56c1.7-0.07,3.4-0.13,5.11-0.2c217.05,0,434.11,0.01,651.16,0.01
			c1.68,0.07,3.37,0.15,5.05,0.22c-0.01,1.51-0.02,3.03-0.03,4.54c-158.42,0.31-316.85,0.74-475.27,0.87
			C1080.31,677.65,1018.3,677.03,956.29,676.71z"/>
		<path class="st6" d="M1612.57,671.96c-217.05,0-434.11-0.01-651.16-0.01c15.87-24.82,40.59-33.04,67.31-29.28
			c19.49,2.74,34.54,3.56,49.42-12.2c7.32-7.76,22.03-12.91,32.76-7.78c21.26,10.16,37.41,3.43,53.96-9.33
			c18.81-14.5,43.59-7.71,64.02-16.87c5,0.07,10,0.14,15,0.2c17.63,14.4,34.06,30.79,53.31,42.52c13.39,8.16,38.81,1.33,40.4-7.21
			c3.19-17.14,12.04-32.88,12.6-50.42c22.59-10.93,41.3-29.07,70.4-26.55c26.86,2.32,46.67,13.25,59.46,34.99
			c9.1,15.48,14.01,28.23,37.71,24.15c13.02-2.24,29.34,1.87,44.23,2.45c3.79,9.52,13.55,12.34,20.95,17.15
			C1597.56,643.27,1609.69,653.78,1612.57,671.96z"/>
		<path class="st2" d="M1228.88,596.49c-20.43,9.17-45.22,2.38-64.02,16.87c-16.55,12.76-32.71,19.48-53.96,9.33
			c-10.73-5.13-25.44,0.02-32.76,7.78c-14.88,15.76-29.93,14.94-49.42,12.2c-26.72-3.76-51.44,4.46-67.31,29.28
			c-1.7,0.07-3.4,0.13-5.1,0.2c-31.1-0.05-62.21-0.45-93.31-0.01c-17.23,0.24-20.37-6.63-14.37-21.82
			c12.96-32.87,49.19-52.55,85.31-45.24c7.6,1.54,15.14,2.53,22.17-1.13c17.77-9.26,33.98-4.74,49.72,4.95
			c15.56,9.58,30.92,6.83,42.29-5.28c17.91-19.06,39.17-25.91,63.66-21.36c10.34,1.92,13.75,0.71,18.37-9.05
			c13.24-27.97,33.15-37.47,61.15-31.97C1214.2,545.74,1226.7,564.12,1228.88,596.49z"/>
		<path class="st2" d="M1350.2,581.58c-0.56,17.54-9.41,33.28-12.6,50.42c-1.59,8.54-27.01,15.37-40.4,7.21
			c-19.26-11.73-35.68-28.12-53.31-42.52c7.85,0.54,14.01,2.09,21.83-5.64C1290.31,566.74,1317.51,564.88,1350.2,581.58z"/>
	</g>
	<path class="st2" d="M1612.57,671.96c-2.88-18.19-15.01-28.69-29.62-38.2c-7.39-4.81-17.15-7.63-20.95-17.15
		c32.34-11.86,67.8,0.91,83.08,29.91c11.82,22.44,10.38,24.92-14.92,25.49c-4.18,0.09-8.37,0.11-12.55,0.17
		C1615.94,672.11,1614.25,672.04,1612.57,671.96z"/>
</g>
<g id="bush_4">
</g>
</svg>
