<?xml version="1.0" encoding="utf-8"?>
<!-- Generator: Adobe Illustrator 23.0.2, SVG Export Plug-In . SVG Version: 6.00 Build 0)  -->
<svg version="1.1" xmlns="http://www.w3.org/2000/svg" xmlns:xlink="http://www.w3.org/1999/xlink" x="0px" y="0px"
	 viewBox="0 0 1920 1080" style="enable-background:new 0 0 1920 1080;" xml:space="preserve">
<style type="text/css">
	.st0{fill:#16AA17;}
	.st1{fill:#0A9009;}
	.st2{fill:#2BAD2A;}
	.st3{fill:#259A23;}
	.st4{fill:#0A900A;}
	.st5{fill:#00A500;}
	.st6{fill:#009100;}
</style>
<g id="bush_1">
	<path class="st0" d="M1732.27,7.86c2.23-2.43,4.46-4.86,6.68-7.29c0.09,2.35,0.18,4.7,0.28,7.05
		C1736.91,7.7,1734.59,7.78,1732.27,7.86z"/>
</g>
<g id="bush_2">
	<g>
		<path class="st1" d="M113.01,353.22c-31.34,1.18-51.54-13.63-54.69-40.09c-2.82-23.74,12.87-45.57,39.59-50.82
			c11.28-2.22,17.14-5.52,21.11-16.6c6.06-16.92,18.25-31.51,35.74-34.99c22.39-4.45,34.01-16.53,45.69-35.4
			c24.09-38.92,71.85-53.87,115.21-38.13c15.03,5.46,22.28,4.61,32.44-8.85c49.19-65.12,142.09-69.32,197.99-9.41
			c9.49,10.17,17.59,15.2,32.26,13.37c20.54-2.57,41.41,2.98,54.8,19.02c13.47,16.14,29.15,18.28,48.1,22.41
			c21.97,4.79,34-1.75,49.77-14.17c48.07-37.86,121.82-24.53,152.11,28.64c11.07,19.42,20.23,31.77,44.01,27.13
			c9.05-1.77,18.64,1.74,25.66,7.58c25.25,21.02,45.4,47.01,71.47,68.02c23.95,19.29,4.72,55.11-29.68,62.32
			c-0.07-1.85-0.15-3.71-0.22-5.56c-6.8-22.04-18.57-39.61-43.16-43.49c-10.93-1.73-13.62-8.7-18.13-17.24
			c-18.41-34.85-57.03-51-94.71-38.8c-15.48,5.01-23.33,1.16-33.81-10.42c-45.97-50.81-108.74-51.83-157.78-3.24
			c-6.54,6.48-12.31,9.99-21.05,9.21c-16.93-1.51-32.19,4.22-47.24,10.89c-10.39-18.04-26.97-23.34-46.37-21.74
			c-14.53,1.2-25.51-3.17-36.3-13.79c-53.08-52.19-124.45-49.64-174.62,6.27c-9.01,10.04-15.73,12.93-29.76,10.21
			c-38.82-7.54-76.59-5.51-102.18,31.33c-11.22,16.15-20.63,31.29-42.35,37.89c-17.84,5.43-30.61,22.14-33.87,42.83
			C113.04,349.47,113.03,351.35,113.01,353.22z"/>
		<path class="st2" d="M578.5,254.59c15.04-6.68,30.31-12.4,47.24-10.89c8.74,0.78,14.51-2.73,21.05-9.21
			c49.04-48.59,111.81-47.57,157.78,3.24c10.48,11.58,18.33,15.43,33.81,10.42c37.68-12.2,76.31,3.95,94.71,38.8
			c4.51,8.54,7.2,15.52,18.13,17.24c24.59,3.88,36.36,21.45,43.16,43.49c-1.75,1.91-3.51,3.83-5.26,5.74
			c-29.05,0.47-58.1,1.32-87.16,1.34c-190.97,0.12-381.93,0.08-572.9,0c-9.96,0-19.91-0.88-29.86-1.35
			c-0.01-1.9-0.02-3.81-0.03-5.71c2.42-27.28,20.78-36.36,44.63-38.03c11.15-0.78,21.96,0.07,27.35-12.82
			c21.8-52.2,89.37-62.02,134.53-29.42C532.08,286.53,557.77,280.58,578.5,254.59z"/>
		<path class="st3" d="M299.16,347.73c-1.89,0.08-3.79,0.16-5.69,0.24c-60.14-0.12-120.28-0.24-180.42-0.37
			c3.26-20.69,16.03-37.41,33.87-42.83c21.72-6.61,31.13-21.74,42.35-37.89c25.6-36.84,63.36-38.87,102.18-31.33
			c14.02,2.73,20.75-0.16,29.76-10.21c50.17-55.92,121.54-58.47,174.62-6.27c10.79,10.61,21.77,14.98,36.3,13.79
			c19.4-1.6,35.98,3.71,46.37,21.74c-20.73,25.99-46.43,31.93-72.84,12.86c-45.15-32.6-112.72-22.78-134.53,29.42
			c-5.38,12.89-16.19,12.05-27.35,12.82C319.94,311.36,301.58,320.45,299.16,347.73z"/>
	</g>
</g>
<g id="bush_3">
	<g>
		<path class="st4" d="M1229.88,390.62c-13.22-8.92-14.36-21.53-10.87-35.56c8.59-1.4,16.42-3.19,6.67-13.59
			c14.31-15.23,29.78-29.01,36-50.81c2.44-8.57,12.72-17.55,21.55-21.13c19.09-7.72,32.5-16.36,34.96-39.85
			c1.41-13.38,15.7-27.12,29.09-26.11c33.03,2.51,61.92-12.82,93.05-16.38c39.64-4.53,69.77,13.2,87.15,49.09
			c6.23,12.85,10.57,22.66,26.81,14.82c1.9-0.92,4.72-0.81,6.85-0.21c33.58,9.45,64.41,24.28,101.69,26.88
			c18.62,1.3,47.52,30.74,68.29,50.53c27.38,26.09,8.36,64.86-33.56,74.4c-0.04-2.09-0.11-4.18-0.2-6.27
			c-8.43-12.22-14.6-27.34-25.76-36.06c-21.52-16.8-32.54-49.02-55.1-56.43c-36.2-11.88-78.44-25.6-113.41,9.16
			c-39.96-46.03-103.68-46-142.07,2.12c-10.49,13.14-20.08,18.32-36.39,19.74c-40.96,3.56-57.94,21.13-64.76,61.8
			C1250.47,391.73,1240.71,388.56,1229.88,390.62z"/>
		<path class="st2" d="M1697.35,396.43c-111.14,0.23-222.28,0.46-333.42,0.7c0,0,0.22-0.65,0.22-0.64
			c18.2-25.74,35.31-48.9,72.87-52.5c22.32-2.14,54.17,0.3,66.06-30.88c34.97-34.76,77.21-21.04,113.41-9.16
			c22.56,7.41,33.58,39.62,55.1,56.43C1682.75,369.09,1688.92,384.2,1697.35,396.43z"/>
		<path class="st3" d="M1503.07,313.1c-11.89,31.19-43.74,28.74-66.06,30.88c-37.55,3.6-54.66,26.76-72.87,52.5
			c-34.76,0.09-69.53,0.19-104.29,0.28c6.83-40.68,23.81-58.24,64.77-61.8c16.31-1.42,25.9-6.59,36.39-19.74
			C1399.39,267.1,1463.12,267.08,1503.07,313.1z"/>
	</g>
	<path class="st5" d="M1697.35,396.43c0.1,2.09,0.16,4.18,0.2,6.27c-111.19-0.02-222.38-0.04-333.56-0.06
		c-0.01-1.84-0.03-3.67-0.06-5.51C1475.07,396.89,1586.21,396.66,1697.35,396.43z"/>
	<path class="st6" d="M1363.92,397.13c0.03,1.84,0.05,3.67,0.06,5.51c-34.68,0.39-69.36,0.68-104.04,1.22
		c-12.19,0.19-22.8-2.57-30.07-13.25c10.84-2.06,20.6,1.11,29.98,6.15c34.76-0.1,69.53-0.19,104.29-0.29L1363.92,397.13z"/>
	<path class="st6" d="M1225.67,341.47c9.75,10.4,1.93,12.19-6.67,13.59C1217.67,348.78,1221.24,344.92,1225.67,341.47z"/>
</g>
<g id="bush_4">
</g>
</svg>
