<?xml version="1.0" encoding="utf-8"?>
<!-- Generator: Adobe Illustrator 23.0.2, SVG Export Plug-In . SVG Version: 6.00 Build 0)  -->
<svg version="1.1" xmlns="http://www.w3.org/2000/svg" xmlns:xlink="http://www.w3.org/1999/xlink" x="0px" y="0px"
	 viewBox="0 0 841.89 595.28" style="enable-background:new 0 0 841.89 595.28;" xml:space="preserve">
<style type="text/css">
	.st0{fill:#FCB3C3;}
	.st1{fill:#763E00;stroke:#331F07;stroke-width:4.3591;stroke-miterlimit:10;}
	.st2{fill:#FCA3B5;stroke:#EF4190;stroke-width:4.3591;stroke-miterlimit:10;}
	.st3{fill:#FC8398;}
	.st4{fill:#FA508C;}
	.st5{fill:#FCA3B5;}
</style>
<g id="boom">
	<g>
		<path class="st0" d="M661.91,274.64c1.93,10.23,9.14,11.58,13.11,9.78c3.97-1.8,9.67-8.55,1.27-16.31l-11.62-7.68L661.91,274.64z"
			/>
		<path class="st0" d="M674.37,214.88c1.5-0.57,1.68-1.54,1.4-2s-1.3-0.97-2.41,0.35l-1.09,1.74L674.37,214.88z"/>
		<path class="st0" d="M668.42,224.55c2.83,5.01,7.04,4.11,8.93,2.26s3.87-6.72-2.11-8.96l-7.74-1.48L668.42,224.55z"/>
		<path class="st0" d="M669.01,290.26c-1.8,0.74-1.75,2.14-1.24,2.82c0.5,0.68,1.99,1.5,3.06-0.36l0.92-2.46L669.01,290.26z"/>
		<path class="st0" d="M666.65,254.26c3.59,1.68,5.62-0.12,5.94-1.66c0.33-1.55-0.49-4.68-4.75-3.94l-4.96,1.69L666.65,254.26z"/>
		<path class="st0" d="M665.42,228.99c-0.13,2.42,1.35,3.15,2.3,2.98s2.54-1.35,1.14-3.59l-2.09-2.42L665.42,228.99z"/>
		<g>
			<g>
				<path class="st1" d="M355.55,583.81l67.25,1.87c0,0-22.42-84.07,5.6-141.98c28.02-57.91,82.2-50.44,106.49-106.49
					s24.29-56.05,24.29-56.05l-26.15-5.6l-13.08,46.7c0,0-13.08,48.57-69.12,61.65c0-48.57,11.21-29.89-7.47-125.17l-24.29-3.74
					c0,0,14.95,61.65,5.6,74.73c0,0-84.07,0-104.62-28.02v13.08c0,0,69.12,33.63,97.14,41.1c0,0,0,20.55-14.95,46.7
					C387.31,428.75,351.81,486.67,355.55,583.81z"/>
				<path class="st1" d="M357.65,581.69l62.36,1.73c-3.56-15.22-18.72-88.68,6.44-140.67c14.25-29.45,35.12-42.31,55.3-54.75
					c20.18-12.43,39.24-24.18,51.14-51.65l23.23-53.6l-21.55-4.62l-12.53,44.73c-0.13,0.48-14.06,49.97-70.73,63.19l-2.68,0.62
					v-2.75c0-15.07,1.06-23.67,2-31.26c2.06-16.64,3.42-27.67-9.14-91.99l-19.58-3.01c3.17,13.74,13.23,61.15,4.51,73.35l-0.65,0.91
					h-1.12c-3.29,0-76.73-0.29-102.44-24.5v6.01c9.4,4.53,70.07,33.57,95.53,40.36l1.62,0.43v1.67c0,0.86-0.17,21.43-15.23,47.78
					l-1.69,2.95C386.89,433.71,354.62,489.87,357.65,581.69z"/>
			</g>
			<path class="st2" d="M322,336.4c-10.84,0-18.21-10.22-21.17-15.21c-3.16,2.68-6.84,4.04-10.99,4.04
				c-7.38,0-14.57-4.37-19.05-7.77c0.21,3.62-0.46,6.37-2,8.32c-1.59,2-3.96,3.01-7.07,3.01c-9.45,0-24.26-9.92-28.02-12.55
				c-5.93,1.62-11.2,2.45-15.7,2.45c-7.28,0-12.7-2.12-16.12-6.29c-3.12-3.81-3.82-8.46-3.85-11.73c-1.32,0.46-2.59,0.7-3.8,0.7
				c-9.88,0-12.2-14.42-12.64-18.22c-10.84-10.03-15.58-20.38-14.08-30.79c2.44-16.97,20.72-28.67,27.6-32.52
				c-4.34-5.17-5.92-10.53-4.7-15.97c3.41-15.18,28.16-25.62,34.21-27.96c2.82-24.05,17.92-27.69,26.78-27.69
				c4.96,0,9.42,1.04,12.24,1.89c0.23-3.71,1.58-6.93,4.01-9.62c5.65-6.24,15.65-7.71,20.19-8.05c-0.82-13.78,1.33-23.54,6.4-29.04
				c3.13-3.39,7.23-5.1,12.2-5.1c2.74,0,5.27,0.54,7.2,1.12c-0.25-3.99,0.69-7.33,2.81-9.98c3.35-4.18,8.71-5.28,11.37-5.58
				c8.11-22.42,25.84-27.18,39.42-27.18c7.53,0,13.89,1.46,16.96,2.32c8.72-20.51,20.46-30.9,34.91-30.9
				c27.96,0,56.17,39.41,60.92,46.33c13.55,0.21,23.14,4.21,28.52,11.88c7.12,10.16,4.63,23.67,3.09,29.4
				c33.6,3.13,37.94,33.9,38.47,43.84c15.73-5.01,30.05-7.54,42.61-7.54c48.06,0,58.14,36.82,59.87,45.73
				c13.75,0.35,23.36,4.68,28.58,12.89c9.94,15.6,0.48,39.8-1.84,45.18c7.45,13.16,8.85,24.13,4.17,32.61
				c-6.88,12.47-24.76,15.48-31.74,16.19c1.53,5.69,1.11,10.25-1.25,13.59c-2.82,3.99-8.24,6.01-16.1,6.01
				c-10.07,0-21.33-3.26-24.57-4.27c-4.79,2.48-8.78,3.69-12.18,3.69c-3.27,0-5.89-1.13-7.79-3.34c-1.82-2.12-2.64-4.94-2.97-7.51
				c-2.93,2.31-6.92,3.51-11.82,3.51c-4.42,0-8.58-0.97-10.93-1.64c-3.37,7.08-9.22,10.81-17.02,10.81
				c-10.68,0-22.1-6.89-25.54-9.14c-5.16,2.12-10.12,3.19-14.77,3.19c-15.41,0-23.59-11.31-26.67-16.84
				c-3.35,3.14-6.82,4.73-10.36,4.73c0,0,0,0,0,0c-14.74,0-24.99-27.61-28.84-39.92c-6.6,11.92-15.03,17.94-25.09,17.94
				c-9.82,0-18.33-5.91-22.23-9.13c-2.03,3.12-5.36,4.81-9.63,4.81c-2.1,0-4.18-0.4-5.94-0.89c4.89,13.48,4.68,24.38-0.64,32.45
				c-8.71,13.2-28.24,14.63-36.23,14.63c-0.61,0-1.13-0.01-1.54-0.02C333.83,333.33,327.9,336.4,322,336.4z"/>
			<path class="st3" d="M480.71,298.92c0,0,11.21,28.02,41.1,14.95c0,0,31.76,22.42,41.1-1.87c0,0,20.55,7.47,26.15-5.6
				c0,0,45.77,15.41,35.96-11.21c0,0,50.44-8.41,14.01-30.82c0,0,16.81-28.02-30.82-12.61c0,0,27.09-29.42-25.22-29.42
				c0,0-4.2-58.85-63.05-35.03c0,0,9.81-29.42-18.21-22.42c0,0-18.21-33.63-64.45-16.81c0,0,22.42-37.83-40.63-33.63
				c0,0-22.42-53.24-43.43-7.01c0,0-29.42-22.42-32.23,12.61c0,0-21.02-23.82-30.82,14.48c0,0-26.15,0-24.29,18.68
				c0,0-35.5-14.95-39.23,24.29c0,0-52.31,18.68-28.02,42.97c0,0-54.18,26.15-14.95,61.65c0,0,1.87,24.29,16.81,14.95
				c0,0-5.6,28.02,33.63,16.81c0,0,41.1,29.89,33.63-1.87c0,0,20.55,20.55,33.63,5.6c0,0,14.95,31.76,37.36,7.47
				c0,0,57.91,3.74,35.5-48.57c0,0,14.95,7.47,18.68-3.74c0,0,29.89,29.89,48.57-11.21C441.48,261.55,458.3,325.07,480.71,298.92z"
				/>
			<path class="st4" d="M577.14,269.17c-1.29-4.49-7.17-7.02-17.94-7.72c-2.19-4.56-12.06-17.25-54.14-17.87
				c1.94-5.22,4.75-16.19-2.17-23.72c-9.3-10.12-32.36-9.51-68.54,1.79c-1.93-4.73-7.84-16.35-20.9-21.29
				c-8.26-3.12-17.77-2.91-28.37,0.51l-13.63-6.62c-1.17-12.53-4.73-28.64-15.18-33.44c-7.49-3.45-17.11-0.52-28.56,8.53
				c-3.04-5.65-11.41-19.04-22.37-19.12c-0.03,0-0.07,0-0.1,0c-7.19,0-13.8,5.74-19.72,16.93c-5.72-5.92-21.65-20.56-36.71-17.2
				c-10.26,2.28-17.64,9.89-22.17,27.53c-5.71,2.1-28.96,8.41-34.37,29.21c-1.34,5.15,0.36,10.3,4.68,15.22
				c-6.85,3.66-25.05,14.82-27.48,30.99c-1.49,9.91,3.23,19.78,14.02,29.34c0.37,3.18,2.03,13.31,8.53,16.45
				c2.36,1.14,4.99,1.23,7.84,0.26c0.03,3.54,0.92,8.79,5.25,12.62c5.89,5.2,16.06,5.94,30.26,2.22c5.6,3.8,24.78,15.98,33.25,10.59
				c2.76-1.75,3.98-4.86,3.71-9.43c4.58,3.33,12.07,7.66,19.58,7.39c3.88-0.12,7.35-1.41,10.34-3.84c2.7,4.37,9.12,12.93,18.5,14.31
				c0.86,0.13,1.73,0.19,2.6,0.19c5.86,0,11.75-2.91,17.54-8.68c5.15,0.15,22.81,0.28,32.64-13.04c5.72-7.75,6.99-21.4,1.99-34.6
				c3.15,0.83,7.76,3.78,11.32,2.37c1.94-0.77,4.57-3.91,5.71-5.6c4.43,3.5,3.73,7.87,28.4,10.61c8.3,0.92,15.21-7.06,20.85-16.78
				c3.57,10.77,12.93,34.92,26.02,37.79c4.45,0.98,8.81-0.44,13.01-4.22c2.26,3.86,7.27,10.7,15.89,14.08
				c7.53,2.95,16.06,2.59,25.37-1.07c4.09,2.56,19.43,11.4,31.44,7.91c5.42-1.57,9.37-5.37,11.75-11.3l0.4-1l-0.61-0.89
				c-0.27-0.39-6.47-9.65-1.88-20.65C566.94,285.47,579.3,276.66,577.14,269.17z M286.04,170.85L286.04,170.85L286.04,170.85
				l0.01,0.01L286.04,170.85L286.04,170.85L286.04,170.85L286.04,170.85z"/>
		</g>
		<path class="st3" d="M350.18,190.58c7.27,4.58,12.04,1.81,13.12-1.09c1.08-2.9,0.1-9.31-9.2-9.41l-11.03,1.5L350.18,190.58z"/>
		<path class="st5" d="M421.64,133.13c7.27,4.58,12.04,1.81,13.12-1.09c1.08-2.9,0.1-9.31-9.2-9.41l-11.03,1.5L421.64,133.13z"/>
		<path class="st5" d="M371.84,98.28c1.01,5.6,4.47,6.71,6.36,5.95s4.56-4.09,0.48-8.7l-5.63-4.74L371.84,98.28z"/>
		<path class="st5" d="M310.35,135.18c5.87-8.66,2.09-14.68-1.77-16.18c-3.86-1.5-12.31-0.67-12.22,10.76l2.25,13.63L310.35,135.18z
			"/>
		<path class="st5" d="M283.02,138.43c-6.13,0.8-7.77,4.06-7.2,5.87s3.79,4.44,9.26,0.69l5.81-5.21L283.02,138.43z"/>
		<path class="st5" d="M366.17,108.17c-2.5,4.01-1.13,6.6,0.36,7.17c1.49,0.57,4.84-0.02,5.04-5.11l-0.6-6.02L366.17,108.17z"/>
		<path class="st5" d="M287.91,159.6c1.15-2.63,0.02-4.07-0.97-4.28s-3.03,0.43-2.63,3.52l1,3.57L287.91,159.6z"/>
		<path class="st5" d="M281.16,156.27c-0.49-2.03-1.5-2.56-2-2.36s-1.13,1.29,0.18,3.09l1.75,1.9L281.16,156.27z"/>
		<path class="st5" d="M373.2,165.93c-0.49-2.03-1.5-2.56-2-2.36c-0.5,0.2-1.13,1.29,0.18,3.09l1.75,1.9L373.2,165.93z"/>
		<path class="st5" d="M354.16,115.37c-0.49-2.03-1.5-2.56-2-2.36s-1.13,1.29,0.18,3.09l1.75,1.9L354.16,115.37z"/>
		<path class="st5" d="M347.61,108.48c-0.49-2.03-1.5-2.56-2-2.36s-1.13,1.29,0.18,3.09l1.75,1.9L347.61,108.48z"/>
		<path class="st5" d="M406.3,118.11c-0.49-2.03-1.5-2.56-2-2.36s-1.13,1.29,0.18,3.09l1.75,1.9L406.3,118.11z"/>
		<path class="st5" d="M376.01,161.62c0.63-1.15,0.3-1.84-0.07-1.96c-0.37-0.13-1.2,0.1-1.26,1.5l0.13,1.64L376.01,161.62z"/>
		<path class="st5" d="M394.34,132.35c0.63-1.15,0.3-1.84-0.07-1.96c-0.37-0.13-1.2,0.1-1.26,1.5l0.13,1.64L394.34,132.35z"/>
		<path class="st5" d="M387.74,181.76c0.63-1.15,0.3-1.84-0.07-1.96c-0.37-0.13-1.2,0.1-1.26,1.5l0.13,1.64L387.74,181.76z"/>
		<path class="st5" d="M405.78,191.57c0.63-1.15,0.3-1.84-0.07-1.96c-0.37-0.13-1.2,0.1-1.26,1.5l0.13,1.64L405.78,191.57z"/>
		<path class="st5" d="M402.6,191.11c-0.9-3.23-2.25-4.18-2.85-3.93c-0.61,0.24-1.25,1.85,0.66,4.82l2.47,3.19L402.6,191.11z"/>
		<path class="st3" d="M449.44,159.42c10.99-7.84,10.18-16.21,6.83-19.37c-3.35-3.16-12.88-5.33-18.95,7.92l-4.94,16.6
			L449.44,159.42z"/>
		<path class="st3" d="M475.56,152.42c5.62-12.36-0.36-19.25-5.52-20.32s-15.61,1.83-13.17,16.43l5.61,16.96L475.56,152.42z"/>
		<path class="st3" d="M620.64,287.47c4.28,12.89,13.35,13.87,17.86,11.15c4.52-2.72,10.21-11.95-1.51-21L621.35,269L620.64,287.47z
			"/>
		<path class="st3" d="M481.94,160.26c11.98-6.04,13.41-13.49,11.19-16.54c-2.21-3.06-10.29-5.73-19.21,5.48l-8.76,14.26
			L481.94,160.26z"/>
		<path class="st5" d="M349.36,103.26c3.85,7.68,9.36,7.78,11.79,5.86s4.91-7.91-3-12.82l-10.21-4.43L349.36,103.26z"/>
		<path class="st5" d="M354.31,92.86c3.85,7.68,9.36,7.78,11.79,5.86s4.91-7.91-3-12.82l-10.21-4.43L354.31,92.86z"/>
		<path class="st5" d="M577.45,208.06c-8.21,2.81-8.3,9.08-6.23,12.24c2.07,3.16,8.49,7.23,13.71-0.78l4.7-10.74L577.45,208.06z"/>
		<path class="st5" d="M581.45,198.05c-7.84-3.5-12.16-0.14-12.82,2.85c-0.66,2.99,1.22,9.13,10.44,7.97l10.7-2.96L581.45,198.05z"
			/>
		<path class="st5" d="M594.49,216.55c-8.12-2.78-12.13,0.96-12.51,4c-0.39,3.04,2.04,8.99,11.12,7l10.38-3.92L594.49,216.55z"/>
		<path class="st5" d="M505.69,175.29c6.1,0.61,8.29-2.59,8.08-4.74c-0.22-2.15-2.85-5.85-8.86-3.03l-6.61,4.35L505.69,175.29z"/>
		<path class="st0" d="M652.85,218.23c9.02,0.74,12.3-3.61,12.01-6.5c-0.29-2.89-4.14-7.85-13.07-3.97l-9.83,5.95L652.85,218.23z"/>
		<path class="st5" d="M324.64,132.15c5.89-1.69,6.74-5.49,5.74-7.4c-1-1.91-4.82-4.37-9.35,0.47l-4.52,6.49L324.64,132.15z"/>
		<path class="st5" d="M381.15,187.59c3.84-2.64,3.67-5.49,2.56-6.59c-1.1-1.09-4.33-1.87-6.56,2.63l-1.88,5.65L381.15,187.59z"/>
		<path class="st5" d="M630.18,256.31c4.65,3.99,8.28,2.62,9.34,0.74c1.05-1.88,1.01-6.43-5.53-7.56l-7.9-0.22L630.18,256.31z"/>
		<path class="st5" d="M446.58,152.72c5.26-3.15,5.1-7.03,3.64-8.63c-1.46-1.59-5.78-2.98-8.92,2.86l-2.7,7.43L446.58,152.72z"/>
		<path class="st5" d="M561.65,204.66c-4.38-2.66-7.15-1.29-7.74,0.25c-0.59,1.54,0.11,5.03,5.61,5.33l6.49-0.52L561.65,204.66z"/>
		<path class="st0" d="M591.09,211.98c-4.67,2.69-4.33,6.3-2.91,7.84s5.46,3.02,8.05-2.26l2.1-6.77L591.09,211.98z"/>
		<path class="st0" d="M579.95,214.24c-3.27,0.61-4.04,2.42-3.68,3.38s2.18,2.29,5,0.11l2.95-2.99L579.95,214.24z"/>
		<path class="st0" d="M586.08,205.84c-2.11-0.31-2.96,0.63-2.94,1.29s0.85,1.85,3.02,1.1l2.42-1.2L586.08,205.84z"/>
		<path class="st5" d="M444.12,161.67c3.88,1.95,6.14,0.45,6.54-0.98c0.4-1.43-0.42-4.48-5.1-4.21l-5.46,1.1L444.12,161.67z"/>
		<path class="st5" d="M629.8,294.98c3.88,1.95,6.14,0.45,6.54-0.98c0.4-1.43-0.42-4.48-5.1-4.21l-5.46,1.1L629.8,294.98z"/>
		<path class="st5" d="M620.44,280.7c1.98,1.04,3.17,0.17,3.4-0.65s-0.15-2.52-2.58-2.3l-2.84,0.7L620.44,280.7z"/>
		<path class="st5" d="M602.25,230.57c1.98,1.04,3.17,0.17,3.4-0.65c0.23-0.81-0.15-2.52-2.58-2.3l-2.84,0.7L602.25,230.57z"/>
		<path class="st5" d="M600.5,235.31c0.74,2.11,2.21,2.28,2.93,1.84c0.72-0.44,1.6-1.95-0.33-3.44l-2.56-1.42L600.5,235.31z"/>
		<path class="st5" d="M621.73,284.74c0.57,1.5,1.54,1.68,2,1.4c0.45-0.28,0.97-1.3-0.35-2.41l-1.74-1.09L621.73,284.74z"/>
		<path class="st5" d="M513.14,191.8c0.57,1.5,1.54,1.68,2,1.4s0.97-1.3-0.35-2.41l-1.74-1.09L513.14,191.8z"/>
		<path class="st5" d="M590.67,301.55c0.57,1.5,1.54,1.68,2,1.4c0.45-0.28,0.97-1.3-0.35-2.41l-1.74-1.09L590.67,301.55z"/>
		<path class="st5" d="M525.05,239.08c0.57,1.5,1.54,1.68,2,1.4s0.97-1.3-0.35-2.41l-1.74-1.09L525.05,239.08z"/>
		<path class="st5" d="M474.18,191.03c0.57,1.5,1.54,1.68,2,1.4s0.97-1.3-0.35-2.41l-1.74-1.09L474.18,191.03z"/>
		<path class="st5" d="M518.3,195.78c0.57,1.5,1.54,1.68,2,1.4s0.97-1.3-0.35-2.41l-1.74-1.09L518.3,195.78z"/>
		<path class="st5" d="M607.14,257.94c0.57,1.5,1.54,1.68,2,1.4c0.45-0.28,0.97-1.3-0.35-2.41l-1.74-1.09L607.14,257.94z"/>
		<path class="st5" d="M598.38,305.29c0.57,1.5,1.54,1.68,2,1.4c0.45-0.28,0.97-1.3-0.35-2.41l-1.74-1.09L598.38,305.29z"/>
		<path class="st5" d="M575.59,308.52c1.5-0.57,1.68-1.54,1.4-2c-0.28-0.45-1.3-0.97-2.41,0.35l-1.09,1.74L575.59,308.52z"/>
		<path class="st5" d="M565.43,257.85c1.5-0.57,1.68-1.54,1.4-2s-1.3-0.97-2.41,0.35l-1.09,1.74L565.43,257.85z"/>
		<path class="st0" d="M631.28,233.68c1.5-0.57,1.68-1.54,1.4-2s-1.3-0.97-2.41,0.35l-1.09,1.74L631.28,233.68z"/>
		<path class="st0" d="M642.54,211.11c1.5-0.57,1.68-1.54,1.4-2s-1.3-0.97-2.41,0.35l-1.09,1.74L642.54,211.11z"/>
		<path class="st0" d="M574.42,160.23c1.5-0.57,1.68-1.54,1.4-2c-0.28-0.45-1.3-0.97-2.41,0.35l-1.09,1.74L574.42,160.23z"/>
		<path class="st0" d="M538.16,167.68c1.5-0.57,1.68-1.54,1.4-2s-1.3-0.97-2.41,0.35l-1.09,1.74L538.16,167.68z"/>
		<path class="st0" d="M538.46,159.07c1.5-0.57,1.68-1.54,1.4-2c-0.28-0.45-1.3-0.97-2.41,0.35l-1.09,1.74L538.46,159.07z"/>
		<path class="st0" d="M464.9,126.49c1.5-0.57,1.68-1.54,1.4-2c-0.28-0.45-1.3-0.97-2.41,0.35l-1.09,1.74L464.9,126.49z"/>
		<path class="st0" d="M500.98,150.66c1.5-0.57,1.68-1.54,1.4-2c-0.28-0.45-1.3-0.97-2.41,0.35l-1.09,1.74L500.98,150.66z"/>
		<path class="st0" d="M293.96,119.48c1.5-0.57,1.68-1.54,1.4-2c-0.28-0.45-1.3-0.97-2.41,0.35l-1.09,1.74L293.96,119.48z"/>
		<path class="st0" d="M354.23,65.64c1.5-0.57,1.68-1.54,1.4-2c-0.28-0.45-1.3-0.97-2.41,0.35l-1.09,1.74L354.23,65.64z"/>
		<path class="st0" d="M361.27,67.5c1.5-0.57,1.68-1.54,1.4-2c-0.28-0.45-1.3-0.97-2.41,0.35l-1.09,1.74L361.27,67.5z"/>
		<path class="st0" d="M625.56,170.98c1.5-0.57,1.68-1.54,1.4-2s-1.3-0.97-2.41,0.35l-1.09,1.74L625.56,170.98z"/>
		<path class="st0" d="M646,262.75c1.5-0.57,1.68-1.54,1.4-2s-1.3-0.97-2.41,0.35l-1.09,1.74L646,262.75z"/>
		<path class="st5" d="M432.38,148.76c-1.61,0.02-2.11,0.88-2,1.4c0.11,0.52,0.89,1.36,2.39,0.49l1.62-1.26L432.38,148.76z"/>
		<path class="st5" d="M459.05,144.55c0.66-1.19,0.25-1.92-0.17-2.06c-0.42-0.14-1.36,0.08-1.36,1.55l0.23,1.72L459.05,144.55z"/>
		<path class="st5" d="M326.83,116.97c0.66-1.19,0.25-1.92-0.17-2.06c-0.42-0.14-1.36,0.08-1.36,1.55l0.23,1.72L326.83,116.97z"/>
		<path class="st5" d="M514.94,230.47c0.66-1.19,0.25-1.92-0.17-2.06c-0.42-0.14-1.36,0.08-1.36,1.55l0.23,1.72L514.94,230.47z"/>
		<path class="st5" d="M429.7,195.91c0.66-1.19,0.25-1.92-0.17-2.06s-1.36,0.08-1.36,1.55l0.23,1.72L429.7,195.91z"/>
		<path class="st5" d="M433.84,195.52c1.2-0.65,1.24-1.48,0.96-1.83c-0.28-0.35-1.19-0.66-1.98,0.57l-0.73,1.58L433.84,195.52z"/>
		<path class="st5" d="M473.1,184.46c1.2-0.65,1.24-1.48,0.96-1.83c-0.28-0.35-1.19-0.66-1.98,0.57l-0.73,1.58L473.1,184.46z"/>
		<path class="st5" d="M426.47,187.71c0.66-1.19,0.25-1.92-0.17-2.06s-1.36,0.08-1.36,1.55l0.23,1.72L426.47,187.71z"/>
		<path class="st5" d="M428.48,158.7c-2.47,0.11-3.27,1.25-3.13,1.94s1.3,1.75,3.64,0.54l2.55-1.74L428.48,158.7z"/>
		<path class="st5" d="M443.12,169.39c0.11,2.47,1.25,3.27,1.94,3.13c0.68-0.14,1.75-1.3,0.54-3.64l-1.74-2.55L443.12,169.39z"/>
		<path class="st5" d="M372.72,117.54c0.11,2.47,1.25,3.27,1.94,3.13c0.68-0.14,1.75-1.3,0.54-3.64l-1.74-2.55L372.72,117.54z"/>
		<path class="st5" d="M391.98,140.31c0.11,2.47,1.25,3.27,1.94,3.13c0.68-0.14,1.75-1.3,0.54-3.64l-1.74-2.55L391.98,140.31z"/>
		<path class="st5" d="M443.13,210.02c-0.92,0.93-0.78,1.68-0.46,1.9s1.19,0.23,1.62-1.1l0.31-1.61L443.13,210.02z"/>
		<path class="st5" d="M479.11,151.36c0.05,1.69,0.88,2.22,1.39,2.12c0.5-0.1,1.29-0.9,0.43-2.5l-1.25-1.73L479.11,151.36z"/>
		<path class="st5" d="M481.07,147.99c2.47,0.18,3.39-0.87,3.33-1.57s-1.09-1.89-3.56-0.95l-2.73,1.43L481.07,147.99z"/>
		<path class="st5" d="M621.3,271.68c1.5-0.57,1.68-1.54,1.4-2c-0.28-0.45-1.3-0.97-2.41,0.35l-1.09,1.74L621.3,271.68z"/>
		<path class="st5" d="M527.6,223.87c1.5-0.57,1.68-1.54,1.4-2s-1.3-0.97-2.41,0.35l-1.09,1.74L527.6,223.87z"/>
		<path class="st5" d="M595.74,231.65c-1.24,0-1.61,0.7-1.52,1.15c0.09,0.44,0.7,1.16,1.85,0.45l1.23-1.03L595.74,231.65z"/>
		<path class="st5" d="M512.23,215.42c-1.24,0-1.61,0.7-1.52,1.15c0.09,0.44,0.7,1.16,1.85,0.45l1.23-1.03L512.23,215.42z"/>
		<path class="st5" d="M516.08,211.92c-1.24,0-1.61,0.7-1.52,1.15c0.09,0.44,0.7,1.16,1.85,0.45l1.23-1.03L516.08,211.92z"/>
		<path class="st5" d="M605.4,253.95c-1.24,0-1.61,0.7-1.52,1.15c0.09,0.44,0.7,1.16,1.85,0.45l1.23-1.03L605.4,253.95z"/>
		<path class="st5" d="M561.03,196.62c-1.24,0-1.61,0.7-1.52,1.15c0.09,0.44,0.7,1.16,1.85,0.45l1.23-1.03L561.03,196.62z"/>
		<path class="st5" d="M552.62,212.5c-1.24,0-1.61,0.7-1.52,1.15c0.09,0.44,0.7,1.16,1.85,0.45l1.23-1.03L552.62,212.5z"/>
		<path class="st0" d="M625.75,235.79c-1.24,0-1.61,0.7-1.52,1.15c0.09,0.44,0.7,1.16,1.85,0.45l1.23-1.03L625.75,235.79z"/>
		<path class="st5" d="M544.22,208.76c-1.24,0-1.61,0.7-1.52,1.15c0.09,0.44,0.7,1.16,1.85,0.45l1.23-1.03L544.22,208.76z"/>
		<path class="st5" d="M494.24,163.46c-1.24,0-1.61,0.7-1.52,1.15c0.09,0.44,0.7,1.16,1.85,0.45l1.23-1.03L494.24,163.46z"/>
		<path class="st5" d="M623.37,258.35c0.57,1.5,1.54,1.68,2,1.4c0.45-0.28,0.97-1.3-0.35-2.41l-1.74-1.09L623.37,258.35z"/>
		<path class="st5" d="M632.71,262.55c0.57,1.5,1.54,1.68,2,1.4c0.45-0.28,0.97-1.3-0.35-2.41l-1.74-1.09L632.71,262.55z"/>
		<path class="st5" d="M622.36,252.23c-0.56,2.17,0.57,3.12,1.41,3.15c0.84,0.03,2.42-0.73,1.64-3.04l-1.34-2.6L622.36,252.23z"/>
		<path class="st5" d="M636.41,287.38c3.42-0.49,3.73-3.18,3.04-4.72s-3.1-3.84-5.55-0.85l-2.36,4.2L636.41,287.38z"/>
		<path class="st5" d="M515.77,184.4c2.36-2.7,1.43-4.88,0.24-5.53s-4-0.7-4.55,3.16l0.05,4.69L515.77,184.4z"/>
		<path class="st5" d="M411.66,121.44c1.99-2.44,1.41-4.23,0.54-4.71c-0.87-0.48-3.03-0.34-3.69,2.97l-0.26,3.98L411.66,121.44z"/>
		<path class="st5" d="M378.61,172.97c1.18-2.92,0.1-4.46-0.87-4.66c-0.97-0.2-2.99,0.56-2.66,3.93l0.92,3.88L378.61,172.97z"/>
		<path class="st5" d="M318.31,138.84c3.13,0.34,4.32-1.12,4.25-2.11c-0.07-0.99-1.36-2.73-4.51-1.48l-3.48,1.94L318.31,138.84z"/>
		<path class="st5" d="M478.04,189.74c3.13,0.34,4.32-1.12,4.25-2.11s-1.36-2.73-4.51-1.48l-3.48,1.94L478.04,189.74z"/>
		<path class="st0" d="M485.36,108.72c3.13,0.34,4.32-1.12,4.25-2.11c-0.07-0.99-1.36-2.73-4.51-1.48l-3.48,1.94L485.36,108.72z"/>
		<path class="st5" d="M332.97,132.22c1.68,0.81,2.64-0.01,2.81-0.73c0.16-0.72-0.21-2.18-2.22-1.87l-2.35,0.74L332.97,132.22z"/>
		<path class="st5" d="M521.44,226.42c1.99-3.55,0.62-5.73-0.75-6.17c-1.37-0.44-4.32,0.19-4.19,4.59l0.9,5.17L521.44,226.42z"/>
		<path class="st5" d="M525.77,234.06c3.91-1.11,4.48-3.63,3.83-4.9c-0.66-1.27-3.19-2.92-6.21,0.29l-3.02,4.3L525.77,234.06z"/>
		<path class="st3" d="M187.53,284.83c-0.39,8.58,4.37,11.36,7.43,10.87c3.06-0.49,8.14-4.51,3.64-12.65l-6.75-8.85L187.53,284.83z"
			/>
		<path class="st3" d="M219.39,281.28c-6.8,8.96-4.2,15.38-0.83,17.04c3.37,1.67,11.37,1,13.04-11.01l-0.01-14.38L219.39,281.28z"/>
		<path class="st3" d="M297.62,146.46c-7.63,4.6-7.59,10.09-5.59,12.3c2,2.22,8.08,4.07,12.82-4.28l4.19-10.59L297.62,146.46z"/>
		<path class="st3" d="M243.7,167.84c-1.9,11.09,3.37,15.58,7.13,15.5c3.76-0.08,10.55-4.36,6.49-15.78l-6.64-12.75L243.7,167.84z"
			/>
		<path class="st0" d="M434.17,41.89c-6.57-11.85-16-10.63-20.16-6.81s-8.4,14.45,5.12,20.65l17.46,4.82L434.17,41.89z"/>
		<path class="st0" d="M407.27,51.82c-5.96-5.82-11.13-3.95-12.79-1.28c-1.67,2.67-2.13,9.16,6.76,10.94l10.88,0.51L407.27,51.82z"
			/>
		<path class="st0" d="M349.52,94.08c-2.67-6.18-6.1-7.33-7.53-6.45c-1.44,0.88-2.76,4.62,2.33,9.64l6.5,5.13L349.52,94.08z"/>
		<path class="st0" d="M352.35,77.61c1.78-7.04-1.75-10.14-4.4-10.25s-7.61,2.36-5.2,9.86l4.17,8.46L352.35,77.61z"/>
		<path class="st0" d="M451.51,128.49c-0.55-3.26-2.82-3.74-4.09-3.2c-1.27,0.54-3.11,2.64-0.5,5.16l3.63,2.52L451.51,128.49z"/>
		<path class="st0" d="M479.82,80.61c-0.55-3.26-2.82-3.74-4.09-3.2c-1.27,0.54-3.11,2.64-0.5,5.16l3.63,2.52L479.82,80.61z"/>
		<path class="st0" d="M524.12,156.65c-0.76-3.29-2.64-3.99-3.6-3.58s-2.24,2.32,0.11,5.08l3.17,2.86L524.12,156.65z"/>
		<path class="st0" d="M405.27,94.79c1.25-2.07,0.38-3.4-0.48-3.69c-0.86-0.29-2.72,0.01-2.63,2.64l0.57,3.1L405.27,94.79z"/>
		<path class="st0" d="M488.62,82.38c1.25-2.07,0.38-3.4-0.48-3.69c-0.86-0.29-2.72,0.01-2.63,2.64l0.57,3.1L488.62,82.38z"/>
		<path class="st0" d="M456.39,132.62c1.17-2.26,0.63-3.55-0.01-3.77c-0.64-0.22-2.11,0.28-2.3,2.99l0.14,3.15L456.39,132.62z"/>
		<path class="st0" d="M320.04,111.66c1.17-2.26,0.63-3.55-0.01-3.77s-2.11,0.28-2.3,2.99l0.14,3.15L320.04,111.66z"/>
		<path class="st0" d="M454.2,96.59c1.17-2.26,0.63-3.55-0.01-3.77c-0.64-0.22-2.11,0.28-2.3,2.99l0.14,3.15L454.2,96.59z"/>
		<path class="st0" d="M377.84,81.09c1.04-2.1,0.64-3.26,0.13-3.43c-0.51-0.17-1.73,0.33-1.99,2.8l0,2.86L377.84,81.09z"/>
		<path class="st0" d="M410.77,90.99c1.17-2.26,0.63-3.55-0.01-3.77c-0.64-0.22-2.11,0.28-2.3,2.99l0.14,3.15L410.77,90.99z"/>
		<path class="st0" d="M409.07,105.1c2.9-1.12,3.1-3.13,2.47-4.09c-0.63-0.96-2.73-2.1-4.74,0.61l-1.9,3.57L409.07,105.1z"/>
		<path class="st0" d="M355.48,90.04c2.9-1.12,3.1-3.13,2.47-4.09c-0.63-0.96-2.73-2.1-4.74,0.61l-1.9,3.57L355.48,90.04z"/>
		<path class="st0" d="M444.64,64.08c2.9-1.12,3.1-3.13,2.47-4.09c-0.63-0.96-2.73-2.1-4.74,0.61l-1.9,3.57L444.64,64.08z"/>
		<path class="st0" d="M495.17,99.77c7.86-2.75,8.49-8.21,6.84-10.89c-1.65-2.68-7.26-5.98-12.8,1.19l-5.29,9.52L495.17,99.77z"/>
		<path class="st0" d="M535.3,180.69c6.72-2.81,7.84-6.71,6.8-8.4s-5.24-3.36-10.56,2.28l-5.39,7.26L535.3,180.69z"/>
		<path class="st0" d="M496.1,107.46c6.59,1.95,9.73,0,9.98-1.71c0.25-1.71-1.81-5.22-9.08-4.5l-8.27,1.76L496.1,107.46z"/>
		<path class="st0" d="M604.55,169.05c9.63,2.66,14.15,0.28,14.47-1.89s-2.78-6.66-13.32-5.95l-11.98,2L604.55,169.05z"/>
		<path class="st0" d="M583.71,168.13c7.09-2.26,7.92-6.98,6.59-9.32c-1.32-2.34-6.12-5.27-11.38,0.85l-5.16,8.16L583.71,168.13z"/>
		<path class="st0" d="M532.42,170.05c2.33-2.83,0.74-5.14-0.85-5.85c-1.59-0.71-5.04-0.79-4.91,3.29l1.03,4.96L532.42,170.05z"/>
		<path class="st3" d="M562.76,300.36c10.83,5.63,17.25-1.31,18.44-7.06c1.19-5.75-0.95-17.17-14.14-13.78l-15.43,7L562.76,300.36z"
			/>
		<path class="st3" d="M574.82,287.31c2.71-9.13-2.33-13.3-6.16-13.52s-11.03,2.84-7.7,12.71l5.86,11.18L574.82,287.31z"/>
		<path class="st3" d="M174.89,246.1c-4.18,7.5-1.16,12.12,1.79,13.04s9.3-0.39,8.91-9.69l-2.09-10.93L174.89,246.1z"/>
		<path class="st3" d="M202.54,293.18c-0.22,4.78,2.44,6.33,4.14,6.05c1.7-0.27,4.54-2.51,2.03-7.05l-3.76-4.93L202.54,293.18z"/>
		<path class="st3" d="M183.27,269.13c-3.85,2.84-3.39,5.87-2.11,7.03c1.28,1.15,4.81,1.95,6.76-2.86l1.47-6.02L183.27,269.13z"/>
		<path class="st3" d="M482.35,224.67c7.27,4.58,12.04,1.81,13.12-1.09c1.08-2.9,0.1-9.31-9.2-9.41l-11.03,1.5L482.35,224.67z"/>
		<path class="st3" d="M441.02,228.87c7.27,4.58,12.04,1.81,13.12-1.09c1.08-2.9,0.1-9.31-9.2-9.41l-11.03,1.5L441.02,228.87z"/>
		<path class="st3" d="M488.83,241.43c1.02,8.53,6.17,10.49,9.11,9.5c2.93-0.99,7.3-5.78,1.52-13.07l-8.11-7.62L488.83,241.43z"/>
		<path class="st3" d="M480.6,247.19c-2.9,4.96-0.94,8.08,1.02,8.74s6.22-0.14,6.09-6.36l-1.25-7.34L480.6,247.19z"/>
		<path class="st3" d="M395.81,271.03c4.34,6.75,9.47,6.29,11.54,4.26c2.07-2.03,3.78-7.84-4.06-11.61l-9.93-3.09L395.81,271.03z"/>
		<path class="st3" d="M449.6,224.35c5.33,8.14,11.41,7.74,13.81,5.39s4.26-9.2-5.14-13.9l-11.86-3.95L449.6,224.35z"/>
		<path class="st3" d="M527.74,240.43c-7.34,6.39-6.12,12.35-3.47,14.41c2.65,2.05,9.69,2.98,13.08-6.97l2.31-12.29L527.74,240.43z"
			/>
		<path class="st3" d="M537.85,239.63c-5.77,7.99-1.65,13.87,2.4,15.46c4.05,1.59,12.75,1.15,12.26-9.72l-2.81-13.06L537.85,239.63z
			"/>
		<path class="st4" d="M428.96,221.27c10.7,0.07,13.24-7.39,12.05-12.04c-1.19-4.64-7.11-12.18-16.35-4.78l-9.68,10.87
			L428.96,221.27z"/>
		<path class="st4" d="M423.81,206.41c3.18-10.94-3.8-15.69-8.96-15.82s-14.68,3.78-9.7,15.37l8.44,13.05L423.81,206.41z"/>
		<path class="st4" d="M402.09,209.22c3.18-10.94-3.8-15.69-8.96-15.82c-5.15-0.12-14.68,3.78-9.7,15.37l8.44,13.05L402.09,209.22z"
			/>
		<path class="st3" d="M464.68,295.95c3.2,5.34,7.5,4.66,9.34,2.85c1.84-1.81,3.61-6.73-2.69-9.39l-8.07-1.97L464.68,295.95z"/>
		<path class="st3" d="M546.11,310.25c2.11,8.16,7.9,8.97,10.94,7.36s7.17-7.27,0.08-13.19l-9.64-5.73L546.11,310.25z"/>
		<path class="st3" d="M303.38,266.19c3.99,6.51,9.15,5.8,11.31,3.67c2.17-2.13,4.17-8.01-3.47-11.38l-9.76-2.58L303.38,266.19z"/>
		<path class="st3" d="M257.97,162.89c3.99,6.51,9.15,5.8,11.31,3.67c2.17-2.13,4.17-8.01-3.47-11.38l-9.76-2.58L257.97,162.89z"/>
		<path class="st3" d="M380.68,265.98c-1.32,5.8,2.29,8.12,4.86,8.06c2.58-0.06,7.24-2.34,4.47-8.29l-4.54-6.63L380.68,265.98z"/>
		<path class="st3" d="M457.55,214.71c-1.32,5.8,2.29,8.12,4.86,8.06c2.58-0.06,7.24-2.34,4.47-8.29l-4.54-6.63L457.55,214.71z"/>
		<path class="st3" d="M223.18,302.16c-5.51,2.26-5.33,6.54-3.8,8.61c1.53,2.07,6.08,4.58,9.35-1.1l2.81-7.52L223.18,302.16z"/>
		<path class="st3" d="M222.66,295.48c-1.8,0.74-1.75,2.14-1.24,2.82s1.99,1.5,3.06-0.36l0.92-2.46L222.66,295.48z"/>
		<path class="st3" d="M321.44,280.77c-1.8,0.74-1.75,2.14-1.24,2.82s1.99,1.5,3.06-0.36l0.92-2.46L321.44,280.77z"/>
		<path class="st3" d="M318.64,287.78c-1.8,0.74-1.75,2.14-1.24,2.82c0.5,0.68,1.99,1.5,3.06-0.36l0.92-2.46L318.64,287.78z"/>
		<path class="st3" d="M324.24,320.35c-1.8,0.74-1.75,2.14-1.24,2.82c0.5,0.68,1.99,1.5,3.06-0.36l0.92-2.46L324.24,320.35z"/>
		<path class="st3" d="M569.09,266.76c-1.8,0.74-1.75,2.14-1.24,2.82c0.5,0.68,1.99,1.5,3.06-0.36l0.92-2.46L569.09,266.76z"/>
		<path class="st3" d="M551.58,276.57c-1.8,0.74-1.75,2.14-1.24,2.82c0.5,0.68,1.99,1.5,3.06-0.36l0.92-2.46L551.58,276.57z"/>
		<path class="st3" d="M335.8,318.95c-1.8,0.74-1.75,2.14-1.24,2.82c0.5,0.68,1.99,1.5,3.06-0.36l0.92-2.46L335.8,318.95z"/>
		<path class="st3" d="M323.89,327.36c-1.8,0.74-1.75,2.14-1.24,2.82s1.99,1.5,3.06-0.36l0.92-2.46L323.89,327.36z"/>
		<path class="st3" d="M335.8,221.92c-1.8,0.74-1.75,2.14-1.24,2.82c0.5,0.68,1.99,1.5,3.06-0.36l0.92-2.46L335.8,221.92z"/>
		<path class="st3" d="M493.43,259.75c-1.8,0.74-1.75,2.14-1.24,2.82s1.99,1.5,3.06-0.36l0.92-2.46L493.43,259.75z"/>
		<path class="st3" d="M525.66,298.99c-1.8,0.74-1.75,2.14-1.24,2.82c0.5,0.68,1.99,1.5,3.06-0.36l0.92-2.46L525.66,298.99z"/>
		<path class="st0" d="M599.92,315.1c-1.8,0.74-1.75,2.14-1.24,2.82s1.99,1.5,3.06-0.36l0.92-2.46L599.92,315.1z"/>
		<path class="st0" d="M660.6,290.26c-1.8,0.74-1.75,2.14-1.24,2.82s1.99,1.5,3.06-0.36l0.92-2.46L660.6,290.26z"/>
		<path class="st3" d="M536.87,299.69c-1.8,0.74-1.75,2.14-1.24,2.82c0.5,0.68,1.99,1.5,3.06-0.36l0.92-2.46L536.87,299.69z"/>
		<path class="st0" d="M600.24,201.78c-1.16-0.02-1.41,0.86-1.26,1.41c0.15,0.55,0.83,1.44,1.8,0.57l1.01-1.27L600.24,201.78z"/>
		<path class="st0" d="M609.12,224.07c0.85,1.17,1.77,1.04,2.12,0.65s0.6-1.45-0.85-2.05l-1.82-0.46L609.12,224.07z"/>
		<path class="st0" d="M601.22,171.64c0.85,1.17,1.77,1.04,2.12,0.65c0.35-0.39,0.6-1.45-0.85-2.05l-1.82-0.46L601.22,171.64z"/>
		<path class="st0" d="M599.59,176.78c0.85,1.17,1.77,1.04,2.12,0.65c0.35-0.39,0.6-1.45-0.85-2.05l-1.82-0.46L599.59,176.78z"/>
		<path class="st0" d="M545.84,177.18c0.85,1.17,1.77,1.04,2.12,0.65c0.35-0.39,0.6-1.45-0.85-2.05l-1.82-0.46L545.84,177.18z"/>
		<path class="st0" d="M518.52,124.29c0.85,1.17,1.77,1.04,2.12,0.65c0.35-0.39,0.6-1.45-0.85-2.05l-1.82-0.46L518.52,124.29z"/>
		<path class="st0" d="M509.06,123.61c0.96,1.48,2.22,1.15,2.76,0.56c0.54-0.59,1.04-2.1-0.82-2.69l-2.38-0.34L509.06,123.61z"/>
		<path class="st0" d="M455.49,101.48c0.96,1.48,2.22,1.15,2.76,0.56c0.54-0.59,1.04-2.1-0.82-2.69l-2.38-0.34L455.49,101.48z"/>
		<path class="st3" d="M328.34,225.82c-1.8,0.74-1.75,2.14-1.24,2.82s1.99,1.5,3.06-0.36l0.92-2.46L328.34,225.82z"/>
		<path class="st3" d="M278.36,166.23c-1.8,0.74-1.75,2.14-1.24,2.82s1.99,1.5,3.06-0.36l0.92-2.46L278.36,166.23z"/>
		<path class="st3" d="M212.85,203.71c-1.8,0.74-1.75,2.14-1.24,2.82s1.99,1.5,3.06-0.36l0.92-2.46L212.85,203.71z"/>
		<path class="st3" d="M193.13,227.22c-1.8,0.74-1.75,2.14-1.24,2.82s1.99,1.5,3.06-0.36l0.92-2.46L193.13,227.22z"/>
		<path class="st3" d="M185.08,231.43c-1.8,0.74-1.75,2.14-1.24,2.82c0.5,0.68,1.99,1.5,3.06-0.36l0.92-2.46L185.08,231.43z"/>
		<path class="st3" d="M334.4,214.57c-1.8,0.74-1.75,2.14-1.24,2.82s1.99,1.5,3.06-0.36l0.92-2.46L334.4,214.57z"/>
		<path class="st3" d="M397.83,248.61c4.48-0.4,5.46-3.31,4.9-5.01s-3.14-4.31-6.91-1.15l-3.92,4.48L397.83,248.61z"/>
		<path class="st0" d="M592.55,173.6c4.48-0.4,5.46-3.31,4.9-5.01c-0.56-1.7-3.14-4.31-6.91-1.15l-3.92,4.48L592.55,173.6z"/>
		<path class="st3" d="M547.71,265.37c4.48-0.4,5.46-3.31,4.9-5.01c-0.56-1.7-3.14-4.31-6.91-1.15l-3.92,4.48L547.71,265.37z"/>
		<path class="st3" d="M235.84,172.71c1.95-4.45,0.01-6.88-1.71-7.25c-1.71-0.36-5.21,0.72-4.5,5.93l1.76,6.04L235.84,172.71z"/>
		<path class="st3" d="M291.92,172.28c4.78-0.88,5.7-3.86,5.03-5.48c-0.66-1.62-3.52-3.91-7.43-0.38l-4.01,4.85L291.92,172.28z"/>
		<path class="st3" d="M296.77,178.95c3.59,1.68,5.62-0.12,5.94-1.66c0.33-1.55-0.49-4.68-4.75-3.94l-4.96,1.69L296.77,178.95z"/>
		<path class="st3" d="M229.51,185.25c3.59,1.68,5.62-0.12,5.94-1.66s-0.49-4.68-4.75-3.94l-4.96,1.69L229.51,185.25z"/>
		<path class="st0" d="M623.91,178.6c3.59,1.68,5.62-0.12,5.94-1.66c0.33-1.55-0.49-4.68-4.75-3.94l-4.96,1.69L623.91,178.6z"/>
		<path class="st0" d="M629.96,188.56c2.29,1,3.54,0.02,3.73-0.85s-0.38-2.64-3.06-2.29l-3.11,0.88L629.96,188.56z"/>
		<path class="st3" d="M350.01,167.04c3.59,1.68,5.62-0.12,5.94-1.66c0.33-1.55-0.49-4.68-4.75-3.94l-4.96,1.69L350.01,167.04z"/>
		<path class="st3" d="M306.32,280.89c3.59,1.68,5.62-0.12,5.94-1.66c0.33-1.55-0.49-4.68-4.75-3.94l-4.96,1.69L306.32,280.89z"/>
		<path class="st3" d="M545.45,294.2c3.59,1.68,5.61-0.12,5.94-1.66c0.33-1.55-0.49-4.68-4.75-3.94l-4.96,1.69L545.45,294.2z"/>
		<path class="st0" d="M658.29,225.25c3.91,1.55,5.96,0.23,6.22-0.99c0.26-1.22-0.79-3.78-5.28-3.43l-5.17,1.07L658.29,225.25z"/>
		<path class="st0" d="M637.89,316.58c5.87,2.4,8.98,0.26,9.4-1.68c0.41-1.94-1.12-5.99-7.9-5.36l-7.82,1.79L637.89,316.58z"/>
		<path class="st3" d="M290.68,284.53c1.5,3.67,4.2,3.72,5.5,2.81s2.82-3.77-0.82-6.12l-4.79-2.13L290.68,284.53z"/>
		<path class="st3" d="M304.69,287.33c1.5,3.67,4.2,3.72,5.5,2.81s2.82-3.77-0.82-6.12l-4.79-2.13L304.69,287.33z"/>
		<path class="st3" d="M304.97,299.55c-0.13,2.42,1.35,3.15,2.3,2.98s2.54-1.35,1.14-3.59l-2.09-2.42L304.97,299.55z"/>
		<path class="st3" d="M316.89,327.42c-0.13,2.42,1.35,3.15,2.3,2.98s2.54-1.35,1.14-3.59l-2.09-2.42L316.89,327.42z"/>
		<path class="st3" d="M427.23,269.97c-0.13,2.42,1.35,3.15,2.3,2.98s2.54-1.35,1.14-3.59l-2.09-2.42L427.23,269.97z"/>
		<path class="st3" d="M452.1,285.38c-0.13,2.42,1.35,3.15,2.3,2.98s2.54-1.35,1.14-3.59l-2.09-2.42L452.1,285.38z"/>
		<path class="st3" d="M481.52,293.09c-0.13,2.42,1.35,3.15,2.3,2.98s2.54-1.35,1.14-3.59l-2.09-2.42L481.52,293.09z"/>
		<path class="st3" d="M506.69,252.67c-0.13,2.42,1.35,3.15,2.3,2.98s2.54-1.35,1.14-3.59l-2.09-2.42L506.69,252.67z"/>
		<path class="st3" d="M537.57,314.11c-0.13,2.42,1.35,3.15,2.3,2.98s2.54-1.35,1.14-3.59l-2.09-2.42L537.57,314.11z"/>
		<path class="st0" d="M598.17,217.78c-0.13,2.42,1.35,3.15,2.3,2.98s2.54-1.35,1.14-3.59l-2.09-2.42L598.17,217.78z"/>
		<path class="st0" d="M627.24,315.51c-0.13,2.42,1.35,3.15,2.3,2.98s2.54-1.35,1.14-3.59l-2.09-2.42L627.24,315.51z"/>
		<path class="st3" d="M480.82,232.14c-0.13,2.42,1.35,3.15,2.3,2.98s2.54-1.35,1.14-3.59l-2.09-2.42L480.82,232.14z"/>
		<path class="st3" d="M373.64,207.27c-0.13,2.42,1.35,3.15,2.3,2.98s2.54-1.35,1.14-3.59l-2.09-2.42L373.64,207.27z"/>
		<path class="st3" d="M294.47,184.85c-0.13,2.42,1.35,3.15,2.3,2.98s2.54-1.35,1.14-3.59l-2.09-2.42L294.47,184.85z"/>
		<path class="st3" d="M219.51,185.9c-0.13,2.42,1.35,3.15,2.3,2.98s2.54-1.35,1.14-3.59l-2.09-2.42L219.51,185.9z"/>
		<path class="st3" d="M226.17,192.56c-0.13,2.42,1.35,3.15,2.3,2.98s2.54-1.35,1.14-3.59l-2.09-2.42L226.17,192.56z"/>
		<path class="st3" d="M231.63,202.06c-0.43,8.26,4.63,10.77,7.88,10.2c3.25-0.58,8.67-4.6,3.89-12.28l-7.16-8.28L231.63,202.06z"/>
		<path class="st3" d="M304.93,152.43c-4.11,9.34,1.4,14.4,5.89,15.12c4.49,0.73,13.28-1.6,10.35-12.5l-5.78-12.6L304.93,152.43z"/>
		<path class="st3" d="M323.77,158.4c-3.33,7.3,1.25,11.3,4.94,11.9c3.7,0.6,10.92-1.17,8.44-9.74l-4.83-9.92L323.77,158.4z"/>
		<path class="st3" d="M235.58,160.58c-0.13,2.42,1.35,3.15,2.3,2.98s2.54-1.35,1.14-3.59l-2.09-2.42L235.58,160.58z"/>
		<path class="st3" d="M193.63,263.47c-0.13,2.42,1.35,3.15,2.3,2.98s2.54-1.35,1.14-3.59l-2.09-2.42L193.63,263.47z"/>
		<path class="st3" d="M207.6,308.85c-0.13,2.42,1.35,3.15,2.3,2.98s2.54-1.35,1.14-3.59l-2.09-2.42L207.6,308.85z"/>
		<path class="st3" d="M213.91,271.02c-0.13,2.42,1.35,3.15,2.3,2.98s2.54-1.35,1.14-3.59l-2.09-2.42L213.91,271.02z"/>
		<path class="st3" d="M385.55,253.16c-0.13,2.42,1.35,3.15,2.3,2.98c0.95-0.17,2.54-1.35,1.14-3.59l-2.09-2.42L385.55,253.16z"/>
		<path class="st3" d="M267.35,172.77c-0.13,2.42,1.35,3.15,2.3,2.98s2.54-1.35,1.14-3.59l-2.09-2.42L267.35,172.77z"/>
		<path class="st3" d="M271.7,156.13c-0.13,2.42,1.35,3.15,2.3,2.98s2.54-1.35,1.14-3.59l-2.09-2.42L271.7,156.13z"/>
		<path class="st3" d="M412.19,204.82c-0.13,2.42,1.35,3.15,2.3,2.98s2.54-1.35,1.14-3.59l-2.09-2.42L412.19,204.82z"/>
		<path class="st3" d="M290.27,261.22c-0.13,2.42,1.35,3.15,2.3,2.98s2.54-1.35,1.14-3.59l-2.09-2.42L290.27,261.22z"/>
		<path class="st3" d="M367.52,183.5c3.59,1.68,5.62-0.12,5.94-1.66c0.33-1.55-0.49-4.68-4.75-3.94l-4.96,1.69L367.52,183.5z"/>
		<path class="st3" d="M363.52,166.08c-3.93-0.47-5.3,1.87-5.13,3.44c0.17,1.57,1.92,4.29,5.75,2.26l4.19-3.16L363.52,166.08z"/>
		<path class="st3" d="M369.47,195.51c-3.93-0.47-5.3,1.87-5.13,3.44c0.17,1.57,1.92,4.29,5.75,2.26l4.19-3.16L369.47,195.51z"/>
		<path class="st0" d="M417.78,56.97c-3.45-0.67-4.89,0.98-4.89,2.18c0,1.2,1.3,3.39,4.9,2.16l4.02-2.04L417.78,56.97z"/>
		<path class="st0" d="M393.92,60.67c-3.45-0.67-4.89,0.98-4.89,2.18c0,1.2,1.3,3.39,4.9,2.16l4.02-2.04L393.92,60.67z"/>
		<path class="st0" d="M310.2,103.05c-3.45-0.67-4.89,0.98-4.89,2.18c0,1.2,1.3,3.39,4.9,2.16l4.02-2.04L310.2,103.05z"/>
		<path class="st0" d="M403.97,65.11c-2.07,1.05-2.32,2.34-1.94,2.86s1.78,0.98,3.32-0.96l1.52-2.47L403.97,65.11z"/>
		<path class="st0" d="M333.56,93.14c-2.07,1.05-2.32,2.34-1.94,2.86c0.38,0.52,1.78,0.98,3.32-0.96l1.52-2.47L333.56,93.14z"/>
		<path class="st0" d="M324.43,90.99c-2.07,1.05-2.32,2.34-1.94,2.86c0.38,0.52,1.78,0.98,3.32-0.96l1.52-2.47L324.43,90.99z"/>
		<path class="st0" d="M411.65,66.82c-2.07,1.05-2.32,2.34-1.94,2.86s1.78,0.98,3.32-0.96l1.52-2.47L411.65,66.82z"/>
		<path class="st5" d="M582.29,299.02c-3.42,4.2-2.62,7.21-1.24,8c1.38,0.78,4.89,0.47,6.23-5.16l0.74-6.75L582.29,299.02z"/>
		<path class="st5" d="M585.54,287.08c-2.81,1.12-2.96,3.1-2.32,4.05c0.64,0.94,2.72,2.05,4.62-0.63l1.78-3.53L585.54,287.08z"/>
		<path class="st5" d="M562.19,217.96c-2.81,1.12-2.96,3.1-2.32,4.05c0.64,0.94,2.72,2.05,4.62-0.63l1.78-3.53L562.19,217.96z"/>
		<path class="st5" d="M455.03,226.19c1.53,2.37,3.4,2.09,4.17,1.31c0.77-0.78,1.44-2.94-1.39-4.15l-3.59-0.91L455.03,226.19z"/>
		<path class="st5" d="M460.8,222.35c1.9-0.22,2.41-1.25,2.24-1.83c-0.18-0.59-1.18-1.45-2.88-0.29l-1.8,1.63L460.8,222.35z"/>
		<path class="st5" d="M443.06,220.96c-2.79,3.53-1.48,6.2,0.06,6.95c1.53,0.75,5.06,0.63,5.5-4.25l-0.36-5.88L443.06,220.96z"/>
		<path class="st5" d="M443.95,214.87c-0.87,1.02-0.64,1.78-0.28,1.99c0.36,0.21,1.28,0.17,1.6-1.22l0.15-1.68L443.95,214.87z"/>
		<path class="st5" d="M449.31,213.98c0.31,2.45,1.52,3.16,2.19,2.96c0.67-0.2,1.64-1.43,0.24-3.67l-1.94-2.4L449.31,213.98z"/>
		<path class="st5" d="M316.41,145.26c0.54,3.1,2.27,3.84,3.21,3.5c0.93-0.34,2.24-2.06,0.18-4.74l-2.83-2.81L316.41,145.26z"/>
		<path class="st5" d="M382.73,106.98c0.27,2.57,2.08,3.02,3.14,2.63c1.06-0.39,2.67-1.98,0.69-4.04l-2.81-2.08L382.73,106.98z"/>
		<path class="st5" d="M324.33,151.8c0.38,2.01,1.44,2.51,2,2.3c0.56-0.21,1.33-1.29,0.04-3.05l-1.77-1.85L324.33,151.8z"/>
	</g>
</g>
<g id="blaadje_1">
	<path class="st4" d="M544.76,100.73c9.9,6.14,16.31,2.56,17.73-1.25s0-12.27-12.59-12.55L535,88.75L544.76,100.73z"/>
</g>
<g id="blaadje_9">
	<path class="st4" d="M701.16,235.83c6.77,4.28,11.22,1.68,12.24-1.04c1.01-2.72,0.11-8.72-8.57-8.8l-10.29,1.42L701.16,235.83z"/>
</g>
<g id="blaadje_8">
	<path class="st4" d="M670.12,339.15c7.43,8.97,14.65,7.61,17.21,4.45c2.56-3.16,3.91-11.64-7.95-15.9l-14.7-3.02L670.12,339.15z"/>
</g>
<g id="blaadje_7">
	<path class="st3" d="M712.55,222.93c11.64,0.49,15.47-5.78,14.83-9.79c-0.63-4.02-6.02-10.69-17.13-4.75l-12.09,8.89L712.55,222.93
		z"/>
</g>
<g id="blaadje_5">
	<path class="st5" d="M555.28,77.73c7.92,0.34,10.51-3.96,10.07-6.72c-0.44-2.76-4.11-7.35-11.66-3.27l-8.2,6.1L555.28,77.73z"/>
	<path class="st3" d="M699.93,272.18c8.38,8.1,15.4,5.95,17.59,2.53c2.19-3.42,2.6-12-9.65-14.93l-14.94-1.38L699.93,272.18z"/>
</g>
<g id="blaadje_6">
	<path class="st4" d="M697.42,324.4c5.02,5.98,9.79,5.17,11.45,3.12c1.66-2.05,2.45-7.6-5.44-10.54l-9.77-2.15L697.42,324.4z"/>
</g>
<g id="blaadje_2">
	<path class="st5" d="M676.51,182.96c9.94,6.08,16.33,2.45,17.72-1.37c1.39-3.82-0.08-12.27-12.67-12.46l-14.88,1.91L676.51,182.96z
		"/>
	<path class="st3" d="M468.75,36.11c11.64,0.49,15.47-5.78,14.83-9.79c-0.63-4.02-6.02-10.69-17.13-4.75l-12.09,8.89L468.75,36.11z"
		/>
</g>
<g id="blaadje_3">
	<path class="st3" d="M617.55,135.08c11.56,1.46,15.9-4.46,15.6-8.52c-0.3-4.05-5.11-11.16-16.67-6.16l-12.79,7.85L617.55,135.08z"
		/>
	<path class="st5" d="M505.52,62.43c9.9,6.14,16.31,2.56,17.73-1.25c1.42-3.81,0-12.27-12.59-12.55l-14.9,1.81L505.52,62.43z"/>
</g>
<g id="blaadje_4">
</g>
</svg>
